<mxfile host="Electron" modified="2024-03-28T20:57:42.900Z" agent="Mozilla/5.0 (Windows NT 10.0; Win64; x64) AppleWebKit/537.36 (KHTML, like Gecko) draw.io/23.0.2 Chrome/120.0.6099.109 Electron/28.1.0 Safari/537.36" etag="_j6h6tE_b5wen-ynmB7c" version="23.0.2" type="device">
  <diagram id="C5RBs43oDa-KdzZeNtuy" name="Page-1">
    <mxGraphModel dx="1000" dy="599" grid="1" gridSize="10" guides="1" tooltips="1" connect="1" arrows="1" fold="1" page="1" pageScale="1" pageWidth="827" pageHeight="1169" math="0" shadow="0">
      <root>
        <mxCell id="WIyWlLk6GJQsqaUBKTNV-0" />
        <mxCell id="WIyWlLk6GJQsqaUBKTNV-1" parent="WIyWlLk6GJQsqaUBKTNV-0" />
        <mxCell id="RMaA7JrhYciATs4dGQGf-2" value="" style="shape=module;align=left;spacingLeft=20;align=center;verticalAlign=middle;whiteSpace=wrap;html=1;" parent="WIyWlLk6GJQsqaUBKTNV-1" vertex="1">
          <mxGeometry x="210" y="260" width="330" height="200" as="geometry" />
        </mxCell>
        <mxCell id="RMaA7JrhYciATs4dGQGf-6" style="edgeStyle=orthogonalEdgeStyle;rounded=0;orthogonalLoop=1;jettySize=auto;html=1;exitX=1;exitY=0.5;exitDx=0;exitDy=0;entryX=0;entryY=0.5;entryDx=10;entryDy=0;entryPerimeter=0;" parent="WIyWlLk6GJQsqaUBKTNV-1" source="RMaA7JrhYciATs4dGQGf-3" target="RMaA7JrhYciATs4dGQGf-2" edge="1">
          <mxGeometry relative="1" as="geometry" />
        </mxCell>
        <mxCell id="RMaA7JrhYciATs4dGQGf-9" style="edgeStyle=orthogonalEdgeStyle;rounded=0;orthogonalLoop=1;jettySize=auto;html=1;exitX=0.5;exitY=1;exitDx=0;exitDy=0;entryX=0.5;entryY=0;entryDx=0;entryDy=0;dashed=1;" parent="WIyWlLk6GJQsqaUBKTNV-1" source="RMaA7JrhYciATs4dGQGf-3" target="RMaA7JrhYciATs4dGQGf-8" edge="1">
          <mxGeometry relative="1" as="geometry" />
        </mxCell>
        <mxCell id="RMaA7JrhYciATs4dGQGf-3" value="Data&lt;br&gt;Access" style="shape=module;align=left;spacingLeft=20;align=center;verticalAlign=middle;whiteSpace=wrap;html=1;" parent="WIyWlLk6GJQsqaUBKTNV-1" vertex="1">
          <mxGeometry x="30" y="310" width="100" height="100" as="geometry" />
        </mxCell>
        <mxCell id="RMaA7JrhYciATs4dGQGf-7" style="edgeStyle=orthogonalEdgeStyle;rounded=0;orthogonalLoop=1;jettySize=auto;html=1;entryX=1;entryY=0.5;entryDx=0;entryDy=0;exitX=0;exitY=0.5;exitDx=10;exitDy=0;exitPerimeter=0;" parent="WIyWlLk6GJQsqaUBKTNV-1" source="RMaA7JrhYciATs4dGQGf-5" target="RMaA7JrhYciATs4dGQGf-2" edge="1">
          <mxGeometry relative="1" as="geometry" />
        </mxCell>
        <mxCell id="RMaA7JrhYciATs4dGQGf-5" value="UI" style="shape=module;align=left;spacingLeft=20;align=center;verticalAlign=middle;whiteSpace=wrap;html=1;" parent="WIyWlLk6GJQsqaUBKTNV-1" vertex="1">
          <mxGeometry x="650" y="310" width="100" height="100" as="geometry" />
        </mxCell>
        <mxCell id="RMaA7JrhYciATs4dGQGf-8" value="DB" style="shape=datastore;whiteSpace=wrap;html=1;" parent="WIyWlLk6GJQsqaUBKTNV-1" vertex="1">
          <mxGeometry x="50" y="460" width="60" height="60" as="geometry" />
        </mxCell>
        <mxCell id="7AzfyU_TfRyJDyLCktRZ-10" value="UserController" style="html=1;whiteSpace=wrap;" vertex="1" parent="WIyWlLk6GJQsqaUBKTNV-1">
          <mxGeometry x="250" y="300" width="120" height="30" as="geometry" />
        </mxCell>
        <mxCell id="7AzfyU_TfRyJDyLCktRZ-11" value="WareProdController" style="html=1;whiteSpace=wrap;" vertex="1" parent="WIyWlLk6GJQsqaUBKTNV-1">
          <mxGeometry x="250" y="340" width="120" height="30" as="geometry" />
        </mxCell>
        <mxCell id="7AzfyU_TfRyJDyLCktRZ-12" value="WarehouseController" style="html=1;whiteSpace=wrap;" vertex="1" parent="WIyWlLk6GJQsqaUBKTNV-1">
          <mxGeometry x="250" y="380" width="120" height="30" as="geometry" />
        </mxCell>
        <mxCell id="7AzfyU_TfRyJDyLCktRZ-13" value="FirmController" style="html=1;whiteSpace=wrap;" vertex="1" parent="WIyWlLk6GJQsqaUBKTNV-1">
          <mxGeometry x="250" y="420" width="120" height="30" as="geometry" />
        </mxCell>
        <mxCell id="7AzfyU_TfRyJDyLCktRZ-14" value="ProductController" style="html=1;whiteSpace=wrap;" vertex="1" parent="WIyWlLk6GJQsqaUBKTNV-1">
          <mxGeometry x="400" y="300" width="120" height="30" as="geometry" />
        </mxCell>
        <mxCell id="7AzfyU_TfRyJDyLCktRZ-15" value="CategoryController" style="html=1;whiteSpace=wrap;" vertex="1" parent="WIyWlLk6GJQsqaUBKTNV-1">
          <mxGeometry x="400" y="340" width="120" height="30" as="geometry" />
        </mxCell>
        <mxCell id="7AzfyU_TfRyJDyLCktRZ-16" value="ContractController" style="html=1;whiteSpace=wrap;" vertex="1" parent="WIyWlLk6GJQsqaUBKTNV-1">
          <mxGeometry x="400" y="380" width="120" height="30" as="geometry" />
        </mxCell>
        <mxCell id="7AzfyU_TfRyJDyLCktRZ-17" value="ContractPosController" style="html=1;whiteSpace=wrap;" vertex="1" parent="WIyWlLk6GJQsqaUBKTNV-1">
          <mxGeometry x="400" y="420" width="120" height="30" as="geometry" />
        </mxCell>
        <mxCell id="7AzfyU_TfRyJDyLCktRZ-20" value="Business Logic" style="text;html=1;align=center;verticalAlign=middle;resizable=0;points=[];autosize=1;strokeColor=none;fillColor=none;" vertex="1" parent="WIyWlLk6GJQsqaUBKTNV-1">
          <mxGeometry x="325" y="260" width="100" height="30" as="geometry" />
        </mxCell>
      </root>
    </mxGraphModel>
  </diagram>
</mxfile>
